<mxfile host="app.diagrams.net" modified="2023-12-19T12:18:01.389Z" agent="Mozilla/5.0 (Windows NT 10.0; Win64; x64) AppleWebKit/537.36 (KHTML, like Gecko) Chrome/120.0.0.0 Safari/537.36" etag="gO2eMJuSgcqjUoLwQVWl" version="22.1.11" type="device">
  <diagram name="Page-1" id="QSxSEcef5AFu9INZKdUs">
    <mxGraphModel dx="880" dy="1568" grid="1" gridSize="10" guides="1" tooltips="1" connect="1" arrows="1" fold="1" page="1" pageScale="1" pageWidth="850" pageHeight="1100" math="0" shadow="0">
      <root>
        <mxCell id="0" />
        <mxCell id="1" parent="0" />
        <mxCell id="6FEie-W7UXmFitEEROnA-33" value="" style="rounded=0;whiteSpace=wrap;html=1;" parent="1" vertex="1">
          <mxGeometry x="45" y="-40" width="795" height="740" as="geometry" />
        </mxCell>
        <mxCell id="7R41npmdEYWA9HE3uOkW-4" value="" style="edgeStyle=orthogonalEdgeStyle;rounded=0;orthogonalLoop=1;jettySize=auto;html=1;" edge="1" parent="1" source="lfvt54emDJ42RaypE45g-1" target="7R41npmdEYWA9HE3uOkW-2">
          <mxGeometry relative="1" as="geometry" />
        </mxCell>
        <mxCell id="lfvt54emDJ42RaypE45g-1" value="&lt;font style=&quot;font-size: 15px;&quot; face=&quot;Times New Roman&quot;&gt;Start&lt;/font&gt;" style="ellipse;whiteSpace=wrap;html=1;align=center;" parent="1" vertex="1">
          <mxGeometry x="355.01" width="130" height="80" as="geometry" />
        </mxCell>
        <mxCell id="6FEie-W7UXmFitEEROnA-22" value="" style="edgeStyle=orthogonalEdgeStyle;rounded=0;orthogonalLoop=1;jettySize=auto;html=1;" parent="1" source="lfvt54emDJ42RaypE45g-19" target="Py34A5tgBrLusEjh5_gq-3" edge="1">
          <mxGeometry relative="1" as="geometry" />
        </mxCell>
        <mxCell id="XrLr2X5jTqEO3WbOsG7c-1" style="edgeStyle=orthogonalEdgeStyle;rounded=0;orthogonalLoop=1;jettySize=auto;html=1;" parent="1" source="lfvt54emDJ42RaypE45g-19" target="lfvt54emDJ42RaypE45g-43" edge="1">
          <mxGeometry relative="1" as="geometry" />
        </mxCell>
        <mxCell id="lfvt54emDJ42RaypE45g-19" value="&lt;font style=&quot;font-size: 15px;&quot; face=&quot;Times New Roman&quot;&gt;Update the Flow&lt;font style=&quot;font-size: 15px;&quot;&gt;&amp;nbsp;&lt;/font&gt;data where the&lt;br style=&quot;border-color: var(--border-color);&quot;&gt;&lt;font style=&quot;border-color: var(--border-color); font-size: 15px;&quot;&gt;flow name is&amp;nbsp;&lt;/font&gt;&lt;/font&gt;FlowName&amp;nbsp;" style="rounded=0;whiteSpace=wrap;html=1;" parent="1" vertex="1">
          <mxGeometry x="297.51" y="475" width="245" height="80" as="geometry" />
        </mxCell>
        <mxCell id="lfvt54emDJ42RaypE45g-43" value="&lt;font face=&quot;Times New Roman&quot;&gt;&lt;span style=&quot;font-size: 15px;&quot;&gt;End&lt;/span&gt;&lt;/font&gt;" style="ellipse;whiteSpace=wrap;html=1;align=center;" parent="1" vertex="1">
          <mxGeometry x="355" y="590" width="130" height="80" as="geometry" />
        </mxCell>
        <mxCell id="6FEie-W7UXmFitEEROnA-23" value="" style="edgeStyle=orthogonalEdgeStyle;rounded=0;orthogonalLoop=1;jettySize=auto;html=1;" parent="1" source="Py34A5tgBrLusEjh5_gq-3" target="lfvt54emDJ42RaypE45g-19" edge="1">
          <mxGeometry relative="1" as="geometry" />
        </mxCell>
        <mxCell id="Py34A5tgBrLusEjh5_gq-3" value="&lt;font face=&quot;Times New Roman&quot; style=&quot;font-size: 15px;&quot;&gt;Data Base&lt;/font&gt;" style="shape=cylinder3;whiteSpace=wrap;html=1;boundedLbl=1;backgroundOutline=1;size=15;" parent="1" vertex="1">
          <mxGeometry x="120" y="460" width="110" height="110" as="geometry" />
        </mxCell>
        <mxCell id="1f7XKs63wjkDiVfGLMMA-12" value="" style="edgeStyle=orthogonalEdgeStyle;rounded=0;orthogonalLoop=1;jettySize=auto;html=1;" parent="1" source="1f7XKs63wjkDiVfGLMMA-6" target="1f7XKs63wjkDiVfGLMMA-10" edge="1">
          <mxGeometry relative="1" as="geometry" />
        </mxCell>
        <mxCell id="XrLr2X5jTqEO3WbOsG7c-3" style="edgeStyle=orthogonalEdgeStyle;rounded=0;orthogonalLoop=1;jettySize=auto;html=1;entryX=0.5;entryY=1;entryDx=0;entryDy=0;" parent="1" source="1f7XKs63wjkDiVfGLMMA-6" target="XrLr2X5jTqEO3WbOsG7c-2" edge="1">
          <mxGeometry relative="1" as="geometry" />
        </mxCell>
        <mxCell id="1f7XKs63wjkDiVfGLMMA-6" value="&lt;div style=&quot;border-color: var(--border-color); font-size: 15px;&quot;&gt;&lt;span style=&quot;background-color: initial;&quot;&gt;&lt;font style=&quot;font-size: 15px;&quot; face=&quot;Times New Roman&quot;&gt;Valid&amp;nbsp;&lt;/font&gt;&lt;/span&gt;&lt;span style=&quot;background-color: initial; font-family: Bf74JlCdi6Ygdcen5z47;&quot;&gt;Request Body&lt;/span&gt;&lt;/div&gt;&lt;div style=&quot;border-color: var(--border-color); font-size: 15px;&quot;&gt;&lt;span style=&quot;font-family: Bf74JlCdi6Ygdcen5z47; background-color: rgb(255, 255, 255);&quot;&gt;&amp;nbsp;(FlowName,&lt;/span&gt;&lt;span style=&quot;font-family: Bf74JlCdi6Ygdcen5z47; background-color: rgb(255, 255, 255);&quot;&gt;N&lt;/span&gt;&lt;span style=&quot;font-family: Bf74JlCdi6Ygdcen5z47; background-color: rgb(255, 255, 255);&quot;&gt;oOfApproval&lt;/span&gt;&lt;span style=&quot;font-family: Bf74JlCdi6Ygdcen5z47; background-color: rgb(255, 255, 255);&quot;&gt;,&lt;/span&gt;&lt;/div&gt;&lt;div style=&quot;border-color: var(--border-color); font-size: 15px;&quot;&gt;&lt;div style=&quot;background-color: rgb(255, 255, 255); line-height: 18px;&quot;&gt;&lt;div style=&quot;&quot;&gt;&lt;font style=&quot;font-size: 15px;&quot; face=&quot;Bf74JlCdi6Ygdcen5z47&quot;&gt;&amp;nbsp; &amp;nbsp; ApprovalFlowType)&lt;/font&gt;&lt;/div&gt;&lt;/div&gt;&lt;/div&gt;" style="rhombus;whiteSpace=wrap;html=1;direction=west;align=center;" parent="1" vertex="1">
          <mxGeometry x="299.63" y="190" width="240.75" height="140" as="geometry" />
        </mxCell>
        <mxCell id="1f7XKs63wjkDiVfGLMMA-11" style="edgeStyle=orthogonalEdgeStyle;rounded=0;orthogonalLoop=1;jettySize=auto;html=1;entryX=1;entryY=0.5;entryDx=0;entryDy=0;exitX=1;exitY=0.5;exitDx=0;exitDy=0;" parent="1" source="1f7XKs63wjkDiVfGLMMA-10" target="lfvt54emDJ42RaypE45g-43" edge="1">
          <mxGeometry relative="1" as="geometry">
            <Array as="points">
              <mxPoint x="800" y="260" />
              <mxPoint x="800" y="630" />
            </Array>
            <mxPoint x="735" y="270" as="sourcePoint" />
            <mxPoint x="500" y="640" as="targetPoint" />
          </mxGeometry>
        </mxCell>
        <mxCell id="1f7XKs63wjkDiVfGLMMA-10" value="&lt;font face=&quot;Times New Roman&quot;&gt;&lt;span style=&quot;font-size: 15px;&quot;&gt;Return&lt;/span&gt;&lt;/font&gt;" style="rounded=0;whiteSpace=wrap;html=1;" parent="1" vertex="1">
          <mxGeometry x="610" y="235" width="110" height="50" as="geometry" />
        </mxCell>
        <mxCell id="1f7XKs63wjkDiVfGLMMA-13" value="Yes" style="text;html=1;strokeColor=none;fillColor=none;align=center;verticalAlign=middle;whiteSpace=wrap;rounded=0;" parent="1" vertex="1">
          <mxGeometry x="355" y="330" width="60" height="30" as="geometry" />
        </mxCell>
        <mxCell id="1f7XKs63wjkDiVfGLMMA-14" value="No" style="text;html=1;strokeColor=none;fillColor=none;align=center;verticalAlign=middle;whiteSpace=wrap;rounded=0;" parent="1" vertex="1">
          <mxGeometry x="540.38" y="235" width="60" height="30" as="geometry" />
        </mxCell>
        <mxCell id="XrLr2X5jTqEO3WbOsG7c-4" style="edgeStyle=orthogonalEdgeStyle;rounded=0;orthogonalLoop=1;jettySize=auto;html=1;" parent="1" source="XrLr2X5jTqEO3WbOsG7c-2" target="lfvt54emDJ42RaypE45g-19" edge="1">
          <mxGeometry relative="1" as="geometry" />
        </mxCell>
        <mxCell id="XrLr2X5jTqEO3WbOsG7c-8" style="edgeStyle=orthogonalEdgeStyle;rounded=0;orthogonalLoop=1;jettySize=auto;html=1;" parent="1" source="XrLr2X5jTqEO3WbOsG7c-2" target="XrLr2X5jTqEO3WbOsG7c-7" edge="1">
          <mxGeometry relative="1" as="geometry" />
        </mxCell>
        <mxCell id="XrLr2X5jTqEO3WbOsG7c-2" value="&lt;div style=&quot;border-color: var(--border-color); font-size: 15px;&quot;&gt;&lt;font face=&quot;Times New Roman&quot;&gt;FlowName&amp;nbsp;&lt;/font&gt;&lt;/div&gt;&lt;div style=&quot;border-color: var(--border-color); font-size: 15px;&quot;&gt;&lt;font face=&quot;Times New Roman&quot;&gt;exist&lt;/font&gt;&lt;/div&gt;" style="rhombus;whiteSpace=wrap;html=1;direction=west;align=center;" parent="1" vertex="1">
          <mxGeometry x="347.51" y="365" width="145" height="80" as="geometry" />
        </mxCell>
        <mxCell id="XrLr2X5jTqEO3WbOsG7c-6" value="Yes" style="text;html=1;strokeColor=none;fillColor=none;align=center;verticalAlign=middle;whiteSpace=wrap;rounded=0;" parent="1" vertex="1">
          <mxGeometry x="365" y="440" width="60" height="30" as="geometry" />
        </mxCell>
        <mxCell id="XrLr2X5jTqEO3WbOsG7c-7" value="&lt;font face=&quot;Times New Roman&quot;&gt;&lt;span style=&quot;font-size: 15px;&quot;&gt;Return&lt;/span&gt;&lt;/font&gt;" style="rounded=0;whiteSpace=wrap;html=1;" parent="1" vertex="1">
          <mxGeometry x="610" y="380" width="110" height="50" as="geometry" />
        </mxCell>
        <mxCell id="XrLr2X5jTqEO3WbOsG7c-10" value="" style="endArrow=none;html=1;rounded=0;exitX=1;exitY=0.5;exitDx=0;exitDy=0;" parent="1" source="XrLr2X5jTqEO3WbOsG7c-7" edge="1">
          <mxGeometry width="50" height="50" relative="1" as="geometry">
            <mxPoint x="450" y="460" as="sourcePoint" />
            <mxPoint x="800" y="405" as="targetPoint" />
          </mxGeometry>
        </mxCell>
        <mxCell id="XrLr2X5jTqEO3WbOsG7c-12" value="No" style="text;html=1;strokeColor=none;fillColor=none;align=center;verticalAlign=middle;whiteSpace=wrap;rounded=0;" parent="1" vertex="1">
          <mxGeometry x="510" y="380" width="60" height="30" as="geometry" />
        </mxCell>
        <mxCell id="7R41npmdEYWA9HE3uOkW-5" value="" style="edgeStyle=orthogonalEdgeStyle;rounded=0;orthogonalLoop=1;jettySize=auto;html=1;" edge="1" parent="1" source="7R41npmdEYWA9HE3uOkW-2" target="1f7XKs63wjkDiVfGLMMA-6">
          <mxGeometry relative="1" as="geometry" />
        </mxCell>
        <mxCell id="7R41npmdEYWA9HE3uOkW-2" value="&lt;font style=&quot;font-size: 15px;&quot; face=&quot;Times New Roman&quot;&gt;Input request body&lt;/font&gt;" style="rounded=0;whiteSpace=wrap;html=1;" vertex="1" parent="1">
          <mxGeometry x="357.51" y="110" width="125" height="50" as="geometry" />
        </mxCell>
        <mxCell id="7R41npmdEYWA9HE3uOkW-3" style="edgeStyle=orthogonalEdgeStyle;rounded=0;orthogonalLoop=1;jettySize=auto;html=1;exitX=0.5;exitY=1;exitDx=0;exitDy=0;" edge="1" parent="1" source="lfvt54emDJ42RaypE45g-1" target="lfvt54emDJ42RaypE45g-1">
          <mxGeometry relative="1" as="geometry" />
        </mxCell>
      </root>
    </mxGraphModel>
  </diagram>
</mxfile>
